<svg xmlns="http://www.w3.org/2000/svg" viewBox="0 0 1736.85 308.4"><defs><style>.cls-1,.cls-2,.cls-3{fill:#231815;stroke:#231815;}.cls-1,.cls-2{stroke-miterlimit:10;}.cls-2{font-size:118.2px;font-family:AgencyFB-Bold, Agency FB;font-weight:700;letter-spacing:0.03em;}.cls-3{stroke-linecap:round;stroke-linejoin:round;stroke-width:11px;}</style></defs><g id="图层_4" data-name="图层 4"><rect class="cls-1" x="347.69" y="54.56" width="35.29" height="178.98"/><polygon class="cls-1" points="462.86 238.37 347.69 238.37 347.69 268.92 452.02 268.92 462.86 238.37"/><polygon class="cls-1" points="459.05 117.62 493.65 117.62 493.65 239.2 521.78 239.2 504.67 268.92 459.05 268.92 471.78 234.51 459.05 234.51 459.05 117.62"/><polygon class="cls-1" points="509.92 269.32 547.14 269.32 566.5 239.14 566.5 117.62 527.79 117.62 527.35 239.52 509.92 269.32"/><polygon class="cls-1" points="574.38 55.84 612.67 55.84 612.67 114.69 603.21 114.69 602.85 158.81 612.67 158.81 612.67 238.37 650.61 238.37 630.71 267.65 574.38 267.65 574.38 55.84"/><polygon class="cls-1" points="606.86 118.12 620.93 118.12 678.41 118.12 679.22 158.81 693.2 158.81 693.2 238.37 683.27 267.6 642.73 267.6 638.57 267.6 659.51 238.37 659.51 155.31 606.86 155.31 606.86 118.12"/><polygon class="cls-1" points="771.34 238.37 728.59 238.37 728.59 206.31 733 198.25 779.58 198.19 779.58 238.37 761.6 268.67 759.13 268.67 797.92 268.67 814.49 241.13 814.49 141.26 798.17 117.87 684.63 117.87 684.63 153.96 779.23 152.51 779.23 175.75 717.55 176.95 702 205.47 701.65 268.67 754.19 268.67 771.34 238.37"/><polygon class="cls-1" points="843.16 112.75 826.26 140.27 826.26 268.3 870.61 268.3 870.61 152.02 889.19 121.37 889.19 112.75 843.16 112.75"/><polygon class="cls-1" points="899.33 112.75 882.86 148.96 926.77 148.96 926.77 268.3 969.43 268.3 969.43 112.75 899.33 112.75"/><polygon class="cls-1" points="1018.3 152.38 1006.75 169.25 1006.75 265.82 1035.5 265.82 1035.5 207.6 1038.73 207.88 1079.85 265.82 1100.01 265.82 1107.53 253.58 1107.53 246.78 1093.29 246.37 1077.16 222.4 1093.56 222.4 1104.5 206.68 1104.58 152.38 1054.86 152.38 1042.9 170.85 1077.98 170.62 1077.41 201.75 1035.42 202.17 1035.23 172.79 1046.42 156.74 1046.42 152.38 1018.3 152.38"/><polygon class="cls-1" points="1125.68 182.58 1115.19 198.9 1114.12 265.82 1151.55 265.82 1160.65 246.33 1139.65 244.87 1141.15 206.71 1151.62 188.6 1152.15 182.58 1125.68 182.58"/><polygon class="cls-1" points="1157.46 182.58 1157.46 185.78 1148.59 201.08 1165.79 201.08 1165.79 247.05 1156.38 265.82 1154.77 265.82 1182.18 265.82 1191.59 248.95 1191.59 182.58 1157.46 182.58"/><polygon class="cls-1" points="1400.09 152.32 1400.09 181.9 1379.33 181.9 1379.33 201.28 1397.67 201.28 1428.31 177.62 1427.1 152.32 1400.09 152.32"/><polygon class="cls-1" points="1428.31 182.92 1400.29 205.56 1400.29 265.34 1459.76 265.34 1465.6 254.12 1465.6 247.19 1428.31 245.15 1427.51 201.28 1465.6 201.28 1465.6 182.92 1428.31 182.92"/><rect class="cls-1" x="1472.46" y="152.32" width="27.01" height="25.3"/><rect class="cls-1" x="1472.46" y="182.92" width="27.01" height="82.42"/><polygon class="cls-1" points="1591.99 182.92 1552.89 182.92 1542.61 198.43 1542.61 201.28 1591.99 201.89 1591.99 182.92"/><polygon class="cls-1" points="1546.64 182.92 1546.64 187 1534.34 205.36 1534.34 246.16 1591.99 246.16 1591.99 253.71 1585.54 265.34 1506.12 265.34 1506.12 197.61 1516.6 182.92 1546.64 182.92"/><polygon class="cls-1" points="1639.77 182.92 1639.77 187.61 1625.86 204.02 1625.86 214.13 1683.91 214.13 1683.91 246.98 1671.21 265.34 1643.19 265.34 1643.6 259.63 1656.1 245.35 1657.1 235.15 1597.84 233.52 1597.84 199.24 1608.52 187.2 1609.13 182.92 1639.77 182.92"/><polygon class="cls-1" points="1646.22 182.92 1634.12 200.06 1634.12 201.89 1657.51 201.89 1657.51 207.81 1683.91 208.63 1683.91 182.92 1646.22 182.92"/><polygon class="cls-1" points="1597.84 240.25 1626.26 240.25 1626.26 246.98 1647.03 246.98 1647.03 251.26 1636.34 265.34 1597.84 265.34 1597.84 240.25"/><polygon class="cls-1" points="1200.03 152.71 1227.98 152.71 1227.98 246.42 1251.9 246.42 1251.9 252 1241.15 265.5 1200.03 265.5 1200.03 152.71"/><polygon class="cls-1" points="1231.74 189.43 1235.5 185.9 1286.84 185.9 1286.84 247.64 1273.94 265.5 1248.94 265.5 1244.98 265.5 1259.29 246.22 1259.29 205.7 1231.74 205.7 1231.74 189.43"/><polygon class="cls-1" points="1303.7 182.48 1293.22 198.8 1292.15 265.72 1329.57 265.72 1338.67 246.23 1317.68 244.77 1319.17 206.61 1329.65 188.5 1330.18 182.48 1303.7 182.48"/><polygon class="cls-1" points="1335.48 182.48 1335.48 185.67 1326.62 200.97 1343.82 200.97 1343.82 246.95 1334.41 265.72 1332.8 265.72 1360.21 265.72 1369.62 248.85 1369.62 182.48 1335.48 182.48"/><text class="cls-2" transform="translate(1200.02 137.55) scale(0.97 1)"><tspan xml:space="preserve">TEAM  9597</tspan></text><line class="cls-3" x1="37.89" y1="213.7" x2="100.98" y2="249.96"/><line class="cls-3" x1="37.89" y1="177.43" x2="37.89" y2="213.7"/><line class="cls-3" x1="37.89" y1="177.43" x2="100.98" y2="213.7"/><line class="cls-3" x1="100.98" y1="213.7" x2="100.98" y2="249.96"/><line class="cls-3" x1="179.85" y1="204.58" x2="100.98" y2="249.96"/><line class="cls-3" x1="179.85" y1="168.32" x2="100.98" y2="213.7"/><line class="cls-3" x1="179.85" y1="168.32" x2="179.85" y2="204.58"/><line class="cls-3" x1="116.76" y1="150.22" x2="148.3" y2="168.32"/><line class="cls-3" x1="164.08" y1="159.27" x2="148.3" y2="168.32"/><line class="cls-3" x1="164.08" y1="159.27" x2="179.85" y2="168.32"/><line class="cls-3" x1="116.76" y1="132.05" x2="37.89" y2="177.43"/><line class="cls-3" x1="242.94" y1="186.48" x2="242.94" y2="259.01"/><line class="cls-3" x1="164.08" y1="213.7" x2="242.94" y2="259.01"/><line class="cls-3" x1="164.08" y1="213.7" x2="164.14" y2="213.77"/><line class="cls-3" x1="164.08" y1="141.1" x2="164.08" y2="159.27"/><line class="cls-3" x1="164.08" y1="141.1" x2="242.94" y2="186.48"/><line class="cls-3" x1="274.49" y1="168.32" x2="242.94" y2="186.48"/><line class="cls-3" x1="195.62" y1="123" x2="164.08" y2="141.1"/><line class="cls-3" x1="195.62" y1="123" x2="274.49" y2="168.32"/><line class="cls-3" x1="274.49" y1="240.85" x2="242.94" y2="259.01"/><line class="cls-3" x1="274.49" y1="168.32" x2="274.49" y2="240.85"/><line class="cls-3" x1="116.76" y1="59.52" x2="116.76" y2="150.22"/><line class="cls-3" x1="116.76" y1="59.52" x2="148.3" y2="77.69"/><line class="cls-3" x1="148.3" y1="77.69" x2="148.3" y2="168.32"/><line class="cls-3" x1="211.4" y1="41.43" x2="148.3" y2="77.69"/><line class="cls-3" x1="211.4" y1="41.43" x2="211.4" y2="132.05"/><line class="cls-3" x1="179.85" y1="23.26" x2="116.76" y2="59.52"/><line class="cls-3" x1="179.85" y1="23.26" x2="211.4" y2="41.43"/><line class="cls-3" x1="211.4" y1="240.85" x2="211.4" y2="259.01"/><line class="cls-3" x1="211.4" y1="259.01" x2="148.3" y2="295.28"/><line class="cls-3" x1="148.3" y1="222.75" x2="148.3" y2="295.28"/><line class="cls-3" x1="116.76" y1="277.18" x2="148.3" y2="295.28"/><line class="cls-3" x1="116.76" y1="240.85" x2="116.76" y2="277.18"/><line class="cls-3" x1="227.17" y1="68.64" x2="211.4" y2="77.69"/><line class="cls-3" x1="227.17" y1="68.64" x2="290.27" y2="104.91"/><line class="cls-3" x1="290.27" y1="104.91" x2="227.17" y2="141.17"/><line class="cls-3" x1="290.27" y1="104.91" x2="290.27" y2="141.17"/><line class="cls-3" x1="290.27" y1="141.17" x2="258.72" y2="159.27"/><line class="cls-3" x1="53.66" y1="150.22" x2="69.44" y2="159.27"/><line class="cls-3" x1="53.66" y1="77.69" x2="53.66" y2="150.22"/><line class="cls-3" x1="53.66" y1="77.69" x2="116.76" y2="113.95"/><line class="cls-3" x1="53.66" y1="77.69" x2="85.21" y2="59.52"/><line class="cls-3" x1="116.76" y1="77.69" x2="85.21" y2="59.52"/></g></svg>