<svg xmlns="http://www.w3.org/2000/svg" viewBox="0 0 1736.85 308.4"><defs><style>.cls-1,.cls-2{fill:#e60012;}.cls-2{font-size:118.2px;font-family:AgencyFB-Bold, Agency FB;font-weight:700;letter-spacing:0.03em;}.cls-3{fill:none;stroke:#e60012;stroke-linecap:round;stroke-linejoin:round;stroke-width:22px;}</style></defs><g id="图层_1" data-name="图层 1"><rect class="cls-1" x="349.55" y="49.08" width="35.29" height="178.98"/><polygon class="cls-1" points="464.72 232.89 349.55 232.89 349.55 263.44 453.88 263.44 464.72 232.89"/><polygon class="cls-1" points="460.91 112.14 495.51 112.14 495.51 233.72 523.64 233.72 506.53 263.44 460.91 263.44 473.64 229.02 460.91 229.02 460.91 112.14"/><polygon class="cls-1" points="511.78 263.84 549 263.84 568.36 233.65 568.36 112.14 529.65 112.14 529.21 234.04 511.78 263.84"/><polygon class="cls-1" points="576.25 50.36 614.53 50.36 614.53 109.21 605.07 109.21 604.71 153.33 614.53 153.33 614.53 232.89 652.47 232.89 632.57 262.16 576.25 262.16 576.25 50.36"/><polygon class="cls-1" points="608.72 112.64 622.79 112.64 680.27 112.64 681.08 153.33 695.06 153.33 695.06 232.89 685.13 262.12 644.59 262.12 640.43 262.12 661.38 232.89 661.38 149.83 608.72 149.83 608.72 112.64"/><polygon class="cls-1" points="773.2 232.89 730.45 232.89 730.45 200.83 734.87 192.76 781.44 192.71 781.44 232.89 763.46 263.19 760.99 263.19 799.78 263.19 816.35 235.64 816.35 135.77 800.03 112.39 686.5 112.39 686.5 148.48 781.09 147.02 781.09 170.27 719.41 171.47 703.86 199.99 703.51 263.19 756.05 263.19 773.2 232.89"/><polygon class="cls-1" points="845.02 107.27 828.13 134.79 828.13 262.82 872.47 262.82 872.47 146.54 891.05 115.89 891.05 107.27 845.02 107.27"/><polygon class="cls-1" points="901.19 107.27 884.72 143.48 928.64 143.48 928.64 262.82 971.29 262.82 971.29 107.27 901.19 107.27"/><polygon class="cls-1" points="1020.16 146.9 1008.61 163.77 1008.61 260.34 1037.37 260.34 1037.37 202.12 1040.59 202.4 1081.71 260.34 1101.87 260.34 1109.39 248.09 1109.39 241.29 1095.15 240.89 1079.02 216.91 1095.42 216.91 1106.36 201.19 1106.44 146.9 1056.72 146.9 1044.76 165.37 1079.85 165.13 1079.27 196.27 1037.29 196.69 1037.1 167.3 1048.28 151.25 1048.28 146.9 1020.16 146.9"/><polygon class="cls-1" points="1127.54 177.1 1117.06 193.42 1115.98 260.34 1153.41 260.34 1162.51 240.85 1141.51 239.39 1143.01 201.23 1153.48 183.12 1154.01 177.1 1127.54 177.1"/><polygon class="cls-1" points="1159.32 177.1 1159.32 180.29 1150.45 195.59 1167.65 195.59 1167.65 241.57 1158.24 260.34 1156.63 260.34 1184.05 260.34 1193.45 243.47 1193.45 177.1 1159.32 177.1"/><polygon class="cls-1" points="1401.95 146.83 1401.95 176.42 1381.19 176.42 1381.19 195.8 1399.53 195.8 1430.17 172.13 1428.96 146.83 1401.95 146.83"/><polygon class="cls-1" points="1430.17 177.44 1402.15 200.08 1402.15 259.86 1461.62 259.86 1467.47 248.64 1467.47 241.7 1430.17 239.66 1429.37 195.8 1467.47 195.8 1467.47 177.44 1430.17 177.44"/><rect class="cls-1" x="1474.32" y="146.83" width="27.01" height="25.3"/><rect class="cls-1" x="1474.32" y="177.44" width="27.01" height="82.42"/><polygon class="cls-1" points="1593.86 177.44 1554.75 177.44 1544.47 192.94 1544.47 195.8 1593.86 196.41 1593.86 177.44"/><polygon class="cls-1" points="1548.5 177.44 1548.5 181.52 1536.2 199.88 1536.2 240.68 1593.86 240.68 1593.86 248.23 1587.4 259.86 1507.98 259.86 1507.98 192.13 1518.46 177.44 1548.5 177.44"/><polygon class="cls-1" points="1641.63 177.44 1641.63 182.13 1627.72 198.54 1627.72 208.65 1685.78 208.65 1685.78 241.5 1673.08 259.86 1645.06 259.86 1645.46 254.15 1657.96 239.87 1658.96 229.66 1599.7 228.03 1599.7 193.76 1610.38 181.72 1610.99 177.44 1641.63 177.44"/><polygon class="cls-1" points="1648.08 177.44 1635.98 194.57 1635.98 196.41 1659.37 196.41 1659.37 202.33 1685.78 203.14 1685.78 177.44 1648.08 177.44"/><polygon class="cls-1" points="1599.7 234.77 1628.12 234.77 1628.12 241.5 1648.89 241.5 1648.89 245.78 1638.2 259.86 1599.7 259.86 1599.7 234.77"/><polygon class="cls-1" points="1201.89 147.22 1229.84 147.22 1229.84 240.94 1253.76 240.94 1253.76 246.51 1243.01 260.01 1201.89 260.01 1201.89 147.22"/><polygon class="cls-1" points="1233.6 183.95 1237.36 180.41 1288.7 180.41 1288.7 242.16 1275.8 260.01 1250.8 260.01 1246.84 260.01 1261.15 240.73 1261.15 200.22 1233.6 200.22 1233.6 183.95"/><polygon class="cls-1" points="1305.57 177 1295.08 193.32 1294.01 260.23 1331.43 260.23 1340.54 240.74 1319.54 239.29 1321.04 201.13 1331.51 183.02 1332.04 177 1305.57 177"/><polygon class="cls-1" points="1337.35 177 1337.35 180.19 1328.48 195.49 1345.68 195.49 1345.68 241.46 1336.27 260.23 1334.66 260.23 1362.07 260.23 1371.48 243.37 1371.48 177 1337.35 177"/><text class="cls-2" transform="translate(1201.89 132.06) scale(0.97 1)"><tspan xml:space="preserve">TEAM  9597</tspan></text></g><g id="图层_4" data-name="图层 4"><line class="cls-3" x1="39.75" y1="208.22" x2="102.85" y2="244.48"/><line class="cls-3" x1="39.75" y1="171.95" x2="39.75" y2="208.22"/><line class="cls-3" x1="39.75" y1="171.95" x2="102.85" y2="208.22"/><line class="cls-3" x1="102.85" y1="208.22" x2="102.85" y2="244.48"/><line class="cls-3" x1="181.71" y1="199.1" x2="102.85" y2="244.48"/><line class="cls-3" x1="181.71" y1="162.84" x2="102.85" y2="208.22"/><line class="cls-3" x1="181.71" y1="162.84" x2="181.71" y2="199.1"/><line class="cls-3" x1="118.62" y1="144.74" x2="150.17" y2="162.84"/><line class="cls-3" x1="165.94" y1="153.79" x2="150.17" y2="162.84"/><line class="cls-3" x1="165.94" y1="153.79" x2="181.71" y2="162.84"/><line class="cls-3" x1="118.62" y1="126.57" x2="39.75" y2="171.95"/><line class="cls-3" x1="244.81" y1="181" x2="244.81" y2="253.53"/><line class="cls-3" x1="165.94" y1="208.22" x2="244.81" y2="253.53"/><line class="cls-3" x1="165.94" y1="208.22" x2="166.01" y2="208.28"/><line class="cls-3" x1="165.94" y1="135.62" x2="165.94" y2="153.79"/><line class="cls-3" x1="165.94" y1="135.62" x2="244.81" y2="181"/><line class="cls-3" x1="276.35" y1="162.84" x2="244.81" y2="181"/><line class="cls-3" x1="197.49" y1="117.52" x2="165.94" y2="135.62"/><line class="cls-3" x1="197.49" y1="117.52" x2="276.35" y2="162.84"/><line class="cls-3" x1="276.35" y1="235.36" x2="244.81" y2="253.53"/><line class="cls-3" x1="276.35" y1="162.84" x2="276.35" y2="235.36"/><line class="cls-3" x1="118.62" y1="54.04" x2="118.62" y2="144.74"/><line class="cls-3" x1="118.62" y1="54.04" x2="150.17" y2="72.21"/><line class="cls-3" x1="150.17" y1="72.21" x2="150.17" y2="162.84"/><line class="cls-3" x1="213.26" y1="35.94" x2="150.17" y2="72.21"/><line class="cls-3" x1="213.26" y1="35.94" x2="213.26" y2="126.57"/><line class="cls-3" x1="181.71" y1="17.78" x2="118.62" y2="54.04"/><line class="cls-3" x1="181.71" y1="17.78" x2="213.26" y2="35.94"/><line class="cls-3" x1="213.26" y1="235.36" x2="213.26" y2="253.53"/><line class="cls-3" x1="213.26" y1="253.53" x2="150.17" y2="289.8"/><line class="cls-3" x1="150.17" y1="217.27" x2="150.17" y2="289.8"/><line class="cls-3" x1="118.62" y1="271.7" x2="150.17" y2="289.8"/><line class="cls-3" x1="118.62" y1="235.36" x2="118.62" y2="271.7"/><line class="cls-3" x1="229.03" y1="63.16" x2="213.26" y2="72.21"/><line class="cls-3" x1="229.03" y1="63.16" x2="292.13" y2="99.42"/><line class="cls-3" x1="292.13" y1="99.42" x2="229.03" y2="135.69"/><line class="cls-3" x1="292.13" y1="99.42" x2="292.13" y2="135.69"/><line class="cls-3" x1="292.13" y1="135.69" x2="260.58" y2="153.79"/><line class="cls-3" x1="55.52" y1="144.74" x2="71.3" y2="153.79"/><line class="cls-3" x1="55.52" y1="72.21" x2="55.52" y2="144.74"/><line class="cls-3" x1="55.52" y1="72.21" x2="118.62" y2="108.47"/><line class="cls-3" x1="55.52" y1="72.21" x2="87.07" y2="54.04"/><line class="cls-3" x1="118.62" y1="72.21" x2="87.07" y2="54.04"/></g></svg>